<svg width="336" height="62" xml:space="preserve" xmlns="http://www.w3.org/2000/svg">
    <defs>
        <clipPath clipPathUnits="userSpaceOnUse" id="b">
            <path d="M0 144.003h252.006V0H0Z"/>
        </clipPath>
        <clipPath clipPathUnits="userSpaceOnUse" id="a">
            <path d="M0 0h252.006v144.003H0Z" transform="matrix(1.33333 0 0 -1.33333 0 192)"/>
        </clipPath>
        <clipPath clipPathUnits="userSpaceOnUse" id="c">
            <path d="M0 0h252.006v144.003H0Z" transform="translate(-17.374 -102.686)"/>
        </clipPath>
        <clipPath clipPathUnits="userSpaceOnUse" id="d">
            <path d="M0 0h252.006v144.003H0Z" transform="translate(-129.785 -64.006)"/>
        </clipPath>
        <clipPath clipPathUnits="userSpaceOnUse" id="e">
            <path d="M0 0h252.006v144.003H0Z" transform="translate(-17.375 -102.95)"/>
        </clipPath>
    </defs>
    <g clip-path="url(#a)" transform="matrix(.92497 0 0 .92497 0 0)">
        <path d="M0 0h252.006v144.003H0Z" style="fill:#fff;fill-opacity:0;fill-rule:nonzero;stroke:none" transform="matrix(1.33333 0 0 -1.33333 0 192)" clip-path="url(#b)" fill="none"/>
    </g>
    <path d="M73.81 10.678c.683 0 1.232.227 1.647.679.412.444.622 1.008.622 1.69v18.977c0 2.602-.578 4.943-1.735 7.024-1.149 2.074-2.738 3.696-4.769 4.87-2.023 1.168-4.303 1.75-6.836 1.75-2.573 0-4.881-.582-6.923-1.75-2.045-1.174-3.642-2.796-4.798-4.87-1.15-2.081-1.72-4.422-1.72-7.024V13.048c0-.683.231-1.247.694-1.691.462-.452 1.055-.68 1.777-.68.625 0 1.175.232 1.648.694.48.463.723 1.023.723 1.677v18.976c0 1.716.393 3.26 1.185 4.625.787 1.37 1.839 2.435 3.15 3.194a8.466 8.466 0 0 0 4.264 1.127 8.889 8.889 0 0 0 4.394-1.127c1.347-.759 2.428-1.825 3.237-3.194.81-1.366 1.214-2.909 1.214-4.625V13.048c0-.683.195-1.247.593-1.691.393-.452.939-.68 1.633-.68zM88.783 42.95a2.28 2.28 0 0 1-.694 1.677 2.286 2.286 0 0 1-1.677.694c-.664 0-1.22-.232-1.662-.694a2.326 2.326 0 0 1-.665-1.677V11.126c0-.654.232-1.214.694-1.677a2.28 2.28 0 0 1 1.677-.694c.665 0 1.217.232 1.662.694.44.463.665 1.023.665 1.677zm14.275-18.933v14.728c0 1.647.74 2.471 2.226 2.471.231 0 .542-.058.94-.173.393-.116.707-.174.939-.174.422 0 .784.185 1.084.55.296.368.448.83.448 1.387 0 .686-.398 1.279-1.185 1.778-.792.491-1.684.737-2.674.737-1.08 0-2.078-.116-2.992-.347-.907-.231-1.716-.813-2.428-1.749-.704-.943-1.055-2.37-1.055-4.278v-14.93H95.5c-.628 0-1.149-.202-1.56-.607-.405-.411-.607-.932-.607-1.56 0-.626.202-1.135.607-1.532.411-.394.932-.593 1.56-.593h2.862v-4.148c0-.665.22-1.221.665-1.676.452-.463 1.026-.694 1.72-.694.654 0 1.203.231 1.647.694.441.455.665 1.011.665 1.676v4.148h4.105c.625 0 1.142.21 1.546.621.412.405.622.922.622 1.547 0 .629-.21 1.138-.622 1.532-.404.397-.921.592-1.546.592zm16.209 18.933c0 .658-.224 1.214-.665 1.677-.444.462-1.012.694-1.705.694-.658 0-1.207-.232-1.648-.694a2.326 2.326 0 0 1-.665-1.677V21.546c0-.654.22-1.214.665-1.676.44-.463.99-.694 1.648-.694.693 0 1.26.231 1.705.694.44.462.665 1.022.665 1.676zm-2.37-27.026c-.954 0-1.64-.173-2.053-.52-.404-.347-.607-.9-.607-1.662v-.78c0-.8.22-1.363.665-1.692.44-.325 1.127-.491 2.052-.491s1.59.173 1.995.52c.412.347.621.903.621 1.662v.78c0 .792-.216 1.356-.65 1.692-.426.328-1.098.491-2.023.491zm38.848 3.064c5.76 0 8.643 3.591 8.643 10.767V42.95c0 .694-.217 1.265-.65 1.706-.427.444-.983.665-1.677.665-.694 0-1.264-.232-1.705-.694a2.326 2.326 0 0 1-.665-1.677V29.8c0-4.307-1.814-6.46-5.434-6.46-1.283 0-2.443.288-3.483.866a6.206 6.206 0 0 0-2.428 2.342c-.571.982-.853 2.066-.853 3.252V42.95a2.31 2.31 0 0 1-.68 1.677c-.444.462-1.011.694-1.705.694-.686 0-1.243-.22-1.676-.665-.427-.441-.636-1.012-.636-1.706V29.755c0-1.944-.416-3.501-1.243-4.668-.82-1.163-2.183-1.749-4.09-1.749-1.948 0-3.556.618-4.827 1.85-1.265 1.236-1.894 2.757-1.894 4.567V42.95a2.31 2.31 0 0 1-.68 1.677c-.443.462-1.01.694-1.704.694-.687 0-1.243-.22-1.677-.665-.426-.441-.636-1.012-.636-1.706V21.806c0-.665.22-1.228.665-1.69.44-.463.99-.694 1.648-.694.693 0 1.26.23 1.705.693.452.463.68 1.026.68 1.691v1.72c.845-1.279 1.986-2.356 3.425-3.223a8.812 8.812 0 0 1 4.668-1.315c4.083 0 6.738 1.814 7.963 5.434.723-1.387 1.922-2.637 3.599-3.758 1.684-1.116 3.468-1.676 5.347-1.676zm36.667.101c.693 0 1.26.224 1.705.665.44.444.665 1.026.665 1.749V42.95c0 .658-.224 1.214-.665 1.677-.444.462-1.012.694-1.705.694-.694 0-1.258-.22-1.691-.665-.427-.441-.636-1.012-.636-1.706v-1.286c-.86 1.156-2.03 2.14-3.512 2.948a9.895 9.895 0 0 1-4.784 1.2c-2.247 0-4.285-.57-6.113-1.72-1.822-1.156-3.252-2.764-4.293-4.827-1.04-2.06-1.56-4.372-1.56-6.937 0-2.573.52-4.885 1.56-6.938 1.04-2.059 2.464-3.67 4.278-4.827 1.81-1.156 3.801-1.734 5.969-1.734 1.752 0 3.375.368 4.87 1.098 1.504.723 2.696 1.644 3.585 2.76v-1.184c0-.694.21-1.265.636-1.72.433-.463.997-.694 1.69-.694zm-10.088 22.373c1.55 0 2.926-.394 4.133-1.185 1.203-.788 2.143-1.872 2.818-3.252.672-1.388 1.012-2.952 1.012-4.697 0-1.713-.34-3.26-1.012-4.64-.675-1.387-1.615-2.485-2.818-3.295-1.207-.81-2.583-1.214-4.133-1.214-1.543 0-2.916.398-4.12 1.185-1.206.792-2.146 1.88-2.818 3.267-.675 1.387-1.011 2.955-1.011 4.697 0 1.745.336 3.31 1.011 4.697.672 1.38 1.612 2.464 2.819 3.252 1.203.791 2.576 1.185 4.119 1.185zm26.44-17.445v14.728c0 1.647.742 2.471 2.227 2.471.23 0 .541-.058.939-.173.394-.116.708-.174.94-.174.422 0 .783.185 1.083.55.297.368.448.83.448 1.387 0 .686-.397 1.279-1.185 1.778-.791.491-1.684.737-2.674.737-1.08 0-2.077-.116-2.991-.347-.907-.231-1.716-.813-2.428-1.749-.705-.943-1.055-2.37-1.055-4.278v-14.93h-2.862c-.629 0-1.149-.202-1.56-.607-.405-.411-.608-.932-.608-1.56 0-.626.203-1.135.607-1.532.412-.394.932-.593 1.561-.593h2.862v-4.148c0-.665.22-1.221.665-1.676.451-.463 1.026-.694 1.72-.694.653 0 1.203.231 1.647.694.44.455.665 1.011.665 1.676v4.148h4.104c.625 0 1.142.21 1.547.621.412.405.621.922.621 1.547 0 .629-.21 1.138-.621 1.532-.405.397-.922.592-1.547.592zm34.243 7.371c-.03.59-.275 1.091-.737 1.503a2.365 2.365 0 0 1-1.633.622H223.25c.231 2.399 1.142 4.328 2.732 5.78 1.597 1.446 3.555 2.169 5.867 2.169 1.58 0 2.862-.224 3.845-.68a9.656 9.656 0 0 0 2.63-1.792c.491-.289.968-.433 1.43-.433.557 0 1.027.199 1.403.592.383.398.578.853.578 1.373 0 .694-.332 1.323-.997 1.88-.954.953-2.222 1.762-3.801 2.427-1.583.654-3.194.983-4.842.983-2.67 0-5.022-.556-7.053-1.676-2.023-1.117-3.591-2.678-4.697-4.683-1.098-2.013-1.648-4.293-1.648-6.836 0-2.764.568-5.192 1.706-7.284 1.134-2.089 2.634-3.693 4.495-4.813 1.868-1.127 3.873-1.691 6.012-1.691 2.11 0 4.083.546 5.925 1.633 1.85 1.091 3.332 2.594 4.452 4.51 1.116 1.907 1.69 4.046 1.72 6.416zM230.91 23.18c-1.85 0-3.45.52-4.798 1.561-1.352 1.04-2.237 2.645-2.66 4.813h14.569v-.39c-.167-1.742-.95-3.173-2.356-4.293-1.398-1.127-2.985-1.69-4.755-1.69zm0 0" style="fill:#fff;fill-opacity:1;fill-rule:nonzero;stroke:none;stroke-width:1.23329" aria-label="Ultimate"/>
    <path d="M268.617 40.768c.694 0 1.26.231 1.705.694.441.462.665 1.008.665 1.633 0 .665-.224 1.207-.665 1.619-.444.404-1.011.607-1.705.607h-17.199a2.28 2.28 0 0 1-1.676-.694 2.28 2.28 0 0 1-.694-1.677V13.106c0-.665.231-1.222.694-1.677a2.28 2.28 0 0 1 1.676-.694h17.199c.694 0 1.26.217 1.705.65.441.427.665.98.665 1.663 0 .665-.224 1.207-.665 1.619-.444.404-1.011.607-1.705.607h-14.684v10.088h12.458c.694 0 1.261.216 1.706.65.44.426.664.965.664 1.619 0 .693-.224 1.239-.664 1.633-.445.397-1.012.592-1.706.592h-12.458v10.912zm33.747-30.09c.654 0 1.221.216 1.705.65.48.426.723.95.723 1.575 0 .33-.087.69-.26 1.084L291.943 43.79a2.61 2.61 0 0 1-.997 1.141c-.426.26-.867.39-1.33.39a2.476 2.476 0 0 1-1.213-.418c-.376-.25-.68-.607-.911-1.07l-12.603-29.845c-.137-.26-.202-.6-.202-1.026 0-.694.246-1.25.737-1.676.499-.434 1.048-.65 1.648-.65.982 0 1.705.527 2.168 1.575l10.767 25.45 10.189-25.494c.231-.462.535-.824.91-1.084a2.122 2.122 0 0 1 1.258-.404zm0 0" style="fill:#599b4a;fill-opacity:1;fill-rule:nonzero;stroke:none;stroke-width:1.23329" aria-label="EV"/>
    <path d="M76.31 61.471h1.908l-2.327-3.844c1.113-.318 1.936-1.17 1.936-2.63 0-1.88-1.401-2.992-3.815-2.992h-3.396v9.466h1.777v-3.483h.824c.188 0 .68 0 .983-.014zm-3.917-4.87v-2.992H74.1c1.228 0 1.922.477 1.922 1.489 0 .997-.65 1.503-1.922 1.503zm8.451 4.87h6.996V59.81h-5.218v-2.413h3.873V55.82h-3.873v-2.167h5.13v-1.648h-6.908zm16.856-3.02c-.506.867-1.445 1.59-2.833 1.59-1.879 0-3.252-1.33-3.252-3.31 0-1.937 1.33-3.295 3.267-3.295 1.792 0 2.529 1.243 2.789 1.633l1.69-.463c-.78-1.85-2.528-2.789-4.494-2.789-2.934 0-5.044 2.096-5.044 4.943 0 2.833 2.11 4.9 5.059 4.9 2.139 0 3.728-1.113 4.509-2.761zm12.36 3.02v-9.466h-1.777v3.815h-4.524v-3.815h-1.778v9.466h1.778v-3.988h4.524v3.988zm9.34-2.225.824 2.225h1.836l-3.7-9.466h-2.14l-3.713 9.466h1.82l.824-2.225zm-.563-1.547h-3.122l.622-1.705.91-2.5h.058c.014.014.246.78.853 2.399zm11.378 3.772h1.907l-2.326-3.844c1.112-.318 1.936-1.17 1.936-2.63 0-1.88-1.402-2.992-3.815-2.992h-3.397v9.466h1.778v-3.483h.824c.188 0 .68 0 .983-.014zm-3.917-4.87v-2.992h1.705c1.229 0 1.923.477 1.923 1.489 0 .997-.65 1.503-1.923 1.503zm17.603 4.87v-5.174h-4.335v1.576h2.731v.983c-.39.52-1.59 1.2-2.948 1.2-2.125 0-3.483-1.345-3.483-3.325 0-2.038 1.33-3.31 3.266-3.31 1.43 0 2.428.78 2.876 1.62l1.619-.435c-.81-1.922-2.645-2.789-4.51-2.789-2.933 0-5.043 2.081-5.043 4.914 0 2.876 2.153 4.928 4.957 4.928 1.705 0 2.804-.852 3.266-1.373h.029c0 .073-.014.232-.014 1.185zm3.039 0h6.995V59.81h-5.217v-2.413h3.873V55.82h-3.873v-2.167h5.13v-1.648h-6.908zm25.917 0h1.908l-2.327-3.844c1.113-.318 1.937-1.17 1.937-2.63 0-1.88-1.402-2.992-3.816-2.992h-3.396v9.466h1.778v-3.483h.823c.188 0 .68 0 .983-.014zm-3.916-4.87v-2.992h1.705c1.228 0 1.922.477 1.922 1.489 0 .997-.65 1.503-1.922 1.503zm8.454 4.87h6.995V59.81h-5.217v-2.413h3.873V55.82h-3.873v-2.167h5.13v-1.648h-6.908zm18.348 0v-9.466h-1.778v4.668c0 .997.015 1.922.015 1.937h-.03l-4.826-6.605h-1.821v9.466h1.777v-4.595c0-1.113-.043-2.14-.043-2.154h.058l4.812 6.75zm3.295 0h6.995V59.81h-5.217v-2.413h3.873V55.82h-3.873v-2.167h5.13v-1.648h-6.908zm17.799 0h1.835l2.992-9.466h-1.734l-1.287 4.076c-.636 2.009-.91 3.064-.925 3.078h-.029c-.014-.014-.289-1.055-.795-2.731l-.997-3.354h-1.879l-1.026 3.354c-.52 1.662-.824 2.717-.838 2.731h-.029c-.014-.014-.303-1.07-.91-3.078l-1.272-4.076h-1.894l2.992 9.466h1.821l1.127-3.512c.55-1.777.839-2.746.853-2.76h.043c.015.014.275.983.839 2.732zm0 0" style="fill:#fff;fill-opacity:1;fill-rule:nonzero;stroke:none;stroke-width:1.23329" aria-label="recharge renew"/>
    <path d="M0 0c-9.337 0-16.933-7.597-16.933-16.933 0-9.338 7.596-16.934 16.933-16.934 9.338 0 16.933 7.596 16.933 16.934C16.933-7.597 9.338 0 0 0m0-33.176c-8.956 0-16.242 7.286-16.242 16.243C-16.242-7.977-8.956-.691 0-.691c8.956 0 16.242-7.286 16.242-16.242 0-8.957-7.286-16.243-16.242-16.243" style="fill:#fff;fill-opacity:1;fill-rule:nonzero;stroke:none" transform="matrix(1.2333 0 0 -1.2333 21.427 6.952)" clip-path="url(#c)"/>
    <path d="M0 0a1.72 1.72 0 0 1-1.719-1.719c.094-2.281 3.344-2.28 3.438 0A1.72 1.72 0 0 1 0 0" style="fill:#fff;fill-opacity:1;fill-rule:nonzero;stroke:none" transform="matrix(1.2333 0 0 -1.2333 160.063 54.656)" clip-path="url(#d)"/>
    <path d="M0 0c-9.512 0-17.25-7.739-17.25-17.25 0-9.513 7.738-17.251 17.25-17.251s17.25 7.738 17.25 17.251C17.25-7.739 9.512 0 0 0m0-33.797c-9.124 0-16.546 7.423-16.546 16.547C-16.546-8.127-9.124-.704 0-.704c9.124 0 16.546-7.423 16.546-16.546 0-9.124-7.422-16.547-16.546-16.547" style="fill:#fff;fill-opacity:1;fill-rule:nonzero;stroke:none" transform="matrix(1.2333 0 0 -1.2333 21.428 6.626)" clip-path="url(#e)"/>
    <path style="fill:#af822d;fill-opacity:1" d="M79.843 44.157c-4.624-4.624-5.176-5.883-5.176-11.803 0-12.6 9.805-20.817 21.143-17.719 12.395 3.387 14.748 21.414 3.58 27.428-12.564 6.766-25.765-8.658-15.875-18.548 4.521-4.521 10.173-4.615 14.546-.242 3.783 3.783 4.122 6.92 1.197 11.097-2.955 4.218-9.195 3.982-12.104-.456-2.136-3.26-2.11-3.551.563-6.224 2.342-2.342 3.146-2.52 4.877-1.084 1.14.946 2.073 2.62 2.073 3.72 0 1.641-.365 1.698-2.033.314-2.75-2.282-4.326-.428-1.791 2.107 2.975 2.976 6.49 1.035 6.49-3.585 0-4.87-4.354-7.308-9.535-5.339-4.27 1.624-5.845 6.987-3.496 11.909 1.457 3.051 2.681 3.663 8.018 4.007 5.868.377 6.486.104 9.04-4 3.418-5.489 2.633-11.24-2.1-15.406-8.373-7.368-21.927-.387-21.927 11.295 0 9.932 9.407 16.983 19.335 14.49 5.256-1.318 11.438-7.655 12.49-12.804 1.065-5.203 3.752-5.186 3.075.02-1.229 9.444-9.53 16-20.262 16-6.297 0-7.439-.488-12.128-5.177zM127.072 60.059c-12.412-7.568-12.455-23.19-.084-30.733 5.61-3.42 10.89-3.364 16.619.176 8.14 5.032 9.72 16.043 3.23 22.532-5.077 5.078-9.51 6.054-15.206 3.351-4.89-2.32-7.631-6.708-7.631-12.217C124 39.442 130.553 32 133.835 32c9.702 0 15.215 13.204 7.284 17.448-5.462 2.923-12.875-2.328-10.84-7.678 1.397-3.675 8.388-3.29 8.388.463 0 1.34-.831 1.683-2.667 1.1-3.053-.969-3.552.939-.836 3.193 4.51 3.742 8.819-4.677 4.57-8.926-4.581-4.58-13.978 1.088-12.46 7.516 2.61 11.043 17.952 10.42 20.2-.82 2.623-13.115-15.5-19.646-23.14-8.34-3.525 5.214-3.777 9.339-.936 15.324 2.398 5.055 6.719 7.389 13.665 7.382 8.708-.01 13.263-4.082 16.77-14.995.926-2.88 3.5-3.086 3.5-.28 0 4.163-5.485 12.62-10.313 15.9-6.093 4.14-13.926 4.444-19.948.772zM39.834 59.803C28.38 53.16 27.866 36.107 38.92 29.368c8.559-5.219 19.4-1.714 23.257 7.517 2.47 5.912 1.606 9.824-3.412 15.44-3.266 3.655-4.707 4.28-9.566 4.153-4.627-.121-6.435-.95-9.46-4.335-5.012-5.61-4.958-11.129.158-16.246 2.17-2.17 5.334-3.897 7.14-3.897 4.748 0 10.296 5.697 10.296 10.572 0 9.14-13.528 10.878-14.409 1.851-.318-3.262.198-4.388 2.321-5.062 1.502-.476 3.337-.492 4.076-.035 1.74 1.075 1.75 4.674.012 4.674C48.6 44 48 43.28 48 42.4c0-1.24-.363-1.237-1.61.01-1.257 1.257-1.163 2.056.43 3.648 4.367 4.367 9.305-2.05 5.624-7.305-2.524-3.603-9.173-3.708-11.064-.174-5.713 10.676 6.927 19.902 15.51 11.32 2.881-2.882 3.32-4.285 2.725-8.72-.875-6.522-2.543-8.618-8.396-10.55-3.809-1.257-5.398-1.102-9.56.932-6.158 3.009-8.836 8.18-7.685 14.84 1.139 6.594 3.52 9.51 9.426 11.54 9.683 3.33 20.866-2.936 22.837-12.794.42-2.097 1.363-3.814 2.096-3.814 1.957 0 .07 8.074-2.804 12-6.643 9.073-16.797 11.63-25.695 6.47z" transform="matrix(.187 0 0 .187 3.94 6.938)"/>
    <path style="fill:#599b4a;fill-opacity:1" d="M159.5 178.405c-2.692-7.325-15.212-45.5-20.903-63.738-2.403-7.7-6.37-20.126-8.816-27.613-2.446-7.488-4.448-15.138-4.448-17 0-2.979.56-3.387 4.642-3.387 3.962 0 4.77.536 5.517 3.666.482 2.017 1.337 4.267 1.902 5 .564.734 6.117 12.434 12.34 26 6.223 13.567 14.937 32.167 19.365 41.334 11.134 23.05 11.024 21.951 3.209 32.134-3.601 4.693-7.482 8.714-8.624 8.937-1.392.271-2.77-1.486-4.185-5.333zM15.55 176.72c-3.328-4.084-6.443-8.666-6.924-10.182-.611-1.926 2.54-10.06 10.453-26.98C32.39 111.09 49.996 72.327 51.125 69c.558-1.647 2.212-2.333 5.617-2.333h4.826l-.92 5.666c-.507 3.117-2.093 8.967-3.525 13-2.973 8.374-17.342 53.287-25.589 79.984-3.922 12.696-6.2 18.108-7.746 18.406-1.343.258-4.53-2.45-8.239-7.004zM83.038 204.377c-.483-1.259-.157-17.309.725-35.666a77145.07 77145.07 0 0 0 3.078-64.705c.811-17.23 2.004-32.72 2.65-34.422.905-2.379 2.024-2.997 4.837-2.673 4.602.53 5.28 3.334 5.58 23.089.122 8.067.798 23.067 1.5 33.333 3.725 54.398 4.856 80.085 3.594 81.667-.848 1.064-4.902 1.667-11.207 1.667-8.106 0-10.036-.411-10.757-2.29z" transform="matrix(.187 0 0 .187 3.94 6.938)"/>
    <g style="fill:#599b4a;fill-opacity:1">
        <path d="M256 21.841c129.323 0 234.159 104.836 234.159 234.159 0 129.322-104.836 234.159-234.159 234.159-129.322 0-234.159-104.837-234.159-234.159C21.841 126.677 126.678 21.841 256 21.841m0 16c-29.458 0-58.027 5.766-84.912 17.137-25.977 10.987-49.309 26.719-69.35 46.76-20.041 20.041-35.773 43.373-46.76 69.349C43.607 197.973 37.841 226.542 37.841 256s5.766 58.027 17.138 84.912c10.987 25.977 26.719 49.309 46.76 69.35 20.041 20.041 43.373 35.772 69.35 46.76 26.885 11.372 55.454 17.138 84.912 17.138 29.459 0 58.027-5.766 84.913-17.138 25.976-10.987 49.309-26.719 69.349-46.76 20.041-20.041 35.773-43.373 46.76-69.35 11.372-26.885 17.138-55.454 17.138-84.912 0-29.458-5.766-58.027-17.138-84.913-10.986-25.976-26.719-49.309-46.76-69.349-20.04-20.041-43.372-35.772-69.349-46.76C314.027 43.606 285.459 37.841 256 37.841Z" style="fill:#599b4a;fill-opacity:1" transform="matrix(.0418 0 0 .0418 310.56 .891)"/>
        <g style="fill:#599b4a;fill-opacity:1">
            <path d="M137.867 182.754H80.775v-20.607h138.971v20.607h-57.371v169.1h-24.508zM398.818 267.419c-1.394-26.18-3.063-57.928-3.063-81.044h-.558c-6.685 21.724-14.203 45.396-23.673 71.296l-33.143 93.069h-18.38l-30.635-91.399c-8.912-26.735-16.152-50.686-21.443-72.966h-.559c-.556 23.394-1.947 54.585-3.619 82.994l-5.013 82.485h-23.116l13.09-189.707h30.913l32.027 90.79c7.797 23.114 13.927 45.724 18.938 65.218h.556c5.014-18.938 11.698-41.545 20.053-65.218l33.419-90.79h30.913l11.699 189.707h-23.952z" style="fill:#599b4a;fill-opacity:1" transform="matrix(.0418 0 0 .0418 310.56 .891)"/>
        </g>
    </g>
</svg>
